<svg xmlns="http://www.w3.org/2000/svg" width="160" height="160" viewBox="0 0 160 160" fill="none" style="color:#b5aa91">
  <title>가공식품</title>
  <path d="m36 28 6 5 6-5 6 5 6-5 6 5 6-5 6 5 6-5 6 5 6-5-3 20v64l3 18-6-4-6 4-6-4-6 4-6-4-6 4-6-4-6 4-6-4-6 4 3-18V48l-3-20Z" fill="currentColor"/>
  <g stroke="#514b40" stroke-width="3" stroke-linecap="round">
    <path d="M43 45h44M43 113h21"/>
    <circle cx="64" cy="73" r="17"/>
    <path d="M60 67h1m9 3h1m-9 11h1"/>
  </g>
  <circle cx="107" cy="103" r="30" fill="currentColor" stroke="#514b40" stroke-width="3"/>
  <g fill="#514b40">
    <circle cx="98" cy="87" r="3"/><circle cx="119" cy="96" r="3.5"/>
    <circle cx="97" cy="109" r="4"/><circle cx="113" cy="119" r="3"/>
    <circle cx="108" cy="99" r="2.5"/>
  </g>
</svg>
